<mxfile host="app.diagrams.net" agent="Mozilla/5.0 (Windows NT 10.0; Win64; x64) AppleWebKit/537.36 (KHTML, like Gecko) Chrome/131.0.0.0 Safari/537.36 OPR/116.0.0.0" version="26.0.15">
  <diagram name="Page-1" id="oBXThlri0ZFfjSWDdC0X">
    <mxGraphModel dx="1440" dy="767" grid="1" gridSize="10" guides="1" tooltips="1" connect="1" arrows="1" fold="1" page="1" pageScale="1" pageWidth="827" pageHeight="1169" math="0" shadow="0">
      <root>
        <mxCell id="0" />
        <mxCell id="1" parent="0" />
        <mxCell id="6O0iVEAwSI0Z_arGeJ4l-1" value="&lt;font style=&quot;color: rgb(195, 155, 255);&quot;&gt;Name&lt;/font&gt;: Search route&lt;br&gt;&lt;font style=&quot;color: rgb(195, 155, 255);&quot;&gt;Aim&lt;/font&gt;: User is searching for a specific issuer&lt;br&gt;&lt;font style=&quot;color: rgb(195, 155, 255);&quot;&gt;Actors&lt;/font&gt;: User, System&lt;div&gt;&lt;font style=&quot;color: rgb(195, 155, 255);&quot;&gt;Precondition&lt;/font&gt;: None&lt;br&gt;&lt;font style=&quot;color: rgb(195, 155, 255);&quot;&gt;Trigger&lt;/font&gt;: Users trigger a new search&lt;br&gt;&lt;font style=&quot;color: rgb(195, 155, 255);&quot;&gt;Includes&lt;/font&gt;:&lt;/div&gt;&lt;div&gt;1 User starts a new search&lt;br&gt;2 System shows results&lt;br&gt;3 User specifies the preferred choice&lt;br&gt;&lt;font style=&quot;color: rgb(195, 155, 255);&quot;&gt;Extensions&lt;/font&gt;:&lt;br&gt;None&lt;/div&gt;" style="text;whiteSpace=wrap;html=1;fontFamily=Architects Daughter;fontSource=https%3A%2F%2Ffonts.googleapis.com%2Fcss%3Ffamily%3DArchitects%2BDaughter;strokeColor=default;spacingLeft=7;" parent="1" vertex="1">
          <mxGeometry x="410" y="70" width="290" height="170" as="geometry" />
        </mxCell>
        <mxCell id="6O0iVEAwSI0Z_arGeJ4l-3" value="&lt;font style=&quot;color: rgb(195, 155, 255);&quot;&gt;Persona&lt;/font&gt;:&amp;nbsp;&lt;div&gt;John, 25 years old&lt;/div&gt;&lt;div&gt;&lt;br&gt;&lt;/div&gt;&lt;div&gt;Regularly trades and likes to keep an eye on stock prices. When he uses the apps for trading he cannot analyze and predict in detail what the future of the stock market will be so he uses this system for analysis and predictions.&lt;/div&gt;&lt;div&gt;&lt;br&gt;&lt;/div&gt;&lt;div&gt;For all his trades he uses his mobile phone which is equipped with chrome browser.&lt;/div&gt;" style="text;html=1;align=left;verticalAlign=middle;whiteSpace=wrap;rounded=0;fontFamily=Architects Daughter;fontSource=https%3A%2F%2Ffonts.googleapis.com%2Fcss%3Ffamily%3DArchitects%2BDaughter;strokeColor=default;spacingLeft=8;spacingRight=8;" parent="1" vertex="1">
          <mxGeometry x="80" y="70" width="290" height="170" as="geometry" />
        </mxCell>
        <mxCell id="6O0iVEAwSI0Z_arGeJ4l-5" value="&lt;font style=&quot;color: rgb(195, 155, 255);&quot;&gt;Name&lt;/font&gt;: Analyze stock&lt;br&gt;&lt;font style=&quot;color: rgb(195, 155, 255);&quot;&gt;Aim&lt;/font&gt;: User is analyzing a specific issuer&lt;br&gt;&lt;font style=&quot;color: rgb(195, 155, 255);&quot;&gt;Actors&lt;/font&gt;: User, System&lt;div&gt;&lt;font style=&quot;color: rgb(195, 155, 255);&quot;&gt;Precondition&lt;/font&gt;: User has found desired issuer&lt;br&gt;&lt;font style=&quot;color: rgb(195, 155, 255);&quot;&gt;Trigger&lt;/font&gt;: Users triggers a new analyze process&lt;br&gt;&lt;font style=&quot;color: rgb(195, 155, 255);&quot;&gt;Includes&lt;/font&gt;:&lt;/div&gt;&lt;div&gt;1 User clicks analyze&lt;br&gt;2 System shows results&lt;br&gt;&lt;font style=&quot;color: rgb(195, 155, 255);&quot;&gt;Extensions&lt;/font&gt;:&lt;br&gt;None&lt;/div&gt;" style="text;whiteSpace=wrap;html=1;fontFamily=Architects Daughter;fontSource=https%3A%2F%2Ffonts.googleapis.com%2Fcss%3Ffamily%3DArchitects%2BDaughter;strokeColor=default;spacingLeft=7;" parent="1" vertex="1">
          <mxGeometry x="740" y="70" width="290" height="170" as="geometry" />
        </mxCell>
        <mxCell id="6O0iVEAwSI0Z_arGeJ4l-6" value="&lt;font style=&quot;color: rgb(195, 155, 255);&quot;&gt;Name&lt;/font&gt;: Predict action&lt;br&gt;&lt;font style=&quot;color: rgb(195, 155, 255);&quot;&gt;Aim&lt;/font&gt;: User is predicting if he should trade stocks from a specific issuer&lt;br&gt;&lt;font style=&quot;color: rgb(195, 155, 255);&quot;&gt;Actors&lt;/font&gt;: User, System&lt;div&gt;&lt;font style=&quot;color: rgb(195, 155, 255);&quot;&gt;Precondition&lt;/font&gt;: User has found desired issuer&lt;br&gt;&lt;font style=&quot;color: rgb(195, 155, 255);&quot;&gt;Trigger&lt;/font&gt;: Users triggers a new prediction process&lt;br&gt;&lt;font style=&quot;color: rgb(195, 155, 255);&quot;&gt;Includes&lt;/font&gt;:&lt;/div&gt;&lt;div&gt;1 User clicks predict&lt;br&gt;2 System shows results&lt;br&gt;&lt;font style=&quot;color: rgb(195, 155, 255);&quot;&gt;Extensions&lt;/font&gt;:&lt;br&gt;None&lt;/div&gt;" style="text;whiteSpace=wrap;html=1;fontFamily=Architects Daughter;fontSource=https%3A%2F%2Ffonts.googleapis.com%2Fcss%3Ffamily%3DArchitects%2BDaughter;strokeColor=default;spacingLeft=7;" parent="1" vertex="1">
          <mxGeometry x="1070" y="70" width="290" height="170" as="geometry" />
        </mxCell>
        <mxCell id="6O0iVEAwSI0Z_arGeJ4l-33" value="Architectural Structure" style="text;html=1;align=center;verticalAlign=middle;resizable=0;points=[];autosize=1;strokeColor=none;fillColor=none;fontFamily=Architects Daughter;fontSource=https%3A%2F%2Ffonts.googleapis.com%2Fcss%3Ffamily%3DArchitects%2BDaughter;" parent="1" vertex="1">
          <mxGeometry x="393" y="419" width="160" height="30" as="geometry" />
        </mxCell>
        <mxCell id="6O0iVEAwSI0Z_arGeJ4l-34" value="" style="rounded=0;whiteSpace=wrap;html=1;hachureGap=4;fontFamily=Architects Daughter;fontSource=https%3A%2F%2Ffonts.googleapis.com%2Fcss%3Ffamily%3DArchitects%2BDaughter;fillColor=none;" parent="1" vertex="1">
          <mxGeometry x="80" y="380" width="720" height="650" as="geometry" />
        </mxCell>
        <mxCell id="6O0iVEAwSI0Z_arGeJ4l-56" value="Search issuer" style="text;html=1;align=center;verticalAlign=middle;resizable=0;points=[];autosize=1;strokeColor=none;fillColor=none;fontFamily=Architects Daughter;fontSource=https%3A%2F%2Ffonts.googleapis.com%2Fcss%3Ffamily%3DArchitects%2BDaughter;" parent="1" vertex="1">
          <mxGeometry x="80" y="1169" width="100" height="30" as="geometry" />
        </mxCell>
        <mxCell id="6O0iVEAwSI0Z_arGeJ4l-60" value="" style="rounded=0;whiteSpace=wrap;html=1;hachureGap=4;fontFamily=Architects Daughter;fontSource=https%3A%2F%2Ffonts.googleapis.com%2Fcss%3Ffamily%3DArchitects%2BDaughter;fillColor=#00CC66;strokeColor=#00CC66;rotation=90;" parent="1" vertex="1">
          <mxGeometry x="689" y="1286" width="30" height="10" as="geometry" />
        </mxCell>
        <mxCell id="6O0iVEAwSI0Z_arGeJ4l-63" value="" style="ellipse;whiteSpace=wrap;html=1;aspect=fixed;hachureGap=4;fontFamily=Architects Daughter;fontSource=https%3A%2F%2Ffonts.googleapis.com%2Fcss%3Ffamily%3DArchitects%2BDaughter;strokeColor=#00CC66;fillColor=#00CC66;" parent="1" vertex="1">
          <mxGeometry x="696" y="1247" width="16" height="16" as="geometry" />
        </mxCell>
        <mxCell id="6O0iVEAwSI0Z_arGeJ4l-65" value="&lt;font style=&quot;color: rgb(0, 204, 102);&quot;&gt;1. Request issuer&lt;/font&gt;" style="text;html=1;align=center;verticalAlign=middle;whiteSpace=wrap;rounded=0;fontFamily=Architects Daughter;fontSource=https%3A%2F%2Ffonts.googleapis.com%2Fcss%3Ffamily%3DArchitects%2BDaughter;" parent="1" vertex="1">
          <mxGeometry x="640" y="1217" width="60" height="30" as="geometry" />
        </mxCell>
        <mxCell id="6O0iVEAwSI0Z_arGeJ4l-66" value="&lt;font style=&quot;color: rgb(0, 204, 102);&quot;&gt;2. Identify issuer id&lt;/font&gt;" style="text;html=1;align=center;verticalAlign=middle;whiteSpace=wrap;rounded=0;fontFamily=Architects Daughter;fontSource=https%3A%2F%2Ffonts.googleapis.com%2Fcss%3Ffamily%3DArchitects%2BDaughter;" parent="1" vertex="1">
          <mxGeometry x="290" y="1360" width="60" height="30" as="geometry" />
        </mxCell>
        <mxCell id="6O0iVEAwSI0Z_arGeJ4l-67" value="&lt;font style=&quot;color: rgb(0, 204, 102);&quot;&gt;3. Retrieve data&lt;/font&gt;" style="text;html=1;align=center;verticalAlign=middle;whiteSpace=wrap;rounded=0;fontFamily=Architects Daughter;fontSource=https%3A%2F%2Ffonts.googleapis.com%2Fcss%3Ffamily%3DArchitects%2BDaughter;" parent="1" vertex="1">
          <mxGeometry x="440" y="1360" width="70" height="30" as="geometry" />
        </mxCell>
        <mxCell id="6O0iVEAwSI0Z_arGeJ4l-72" style="edgeStyle=orthogonalEdgeStyle;rounded=0;hachureGap=4;orthogonalLoop=1;jettySize=auto;html=1;exitX=0.75;exitY=1;exitDx=0;exitDy=0;entryX=0.75;entryY=0;entryDx=0;entryDy=0;fontFamily=Architects Daughter;fontSource=https%3A%2F%2Ffonts.googleapis.com%2Fcss%3Ffamily%3DArchitects%2BDaughter;" parent="1" source="6O0iVEAwSI0Z_arGeJ4l-74" target="6O0iVEAwSI0Z_arGeJ4l-78" edge="1">
          <mxGeometry relative="1" as="geometry" />
        </mxCell>
        <mxCell id="6O0iVEAwSI0Z_arGeJ4l-73" style="edgeStyle=orthogonalEdgeStyle;rounded=0;hachureGap=4;orthogonalLoop=1;jettySize=auto;html=1;exitX=0;exitY=0.75;exitDx=0;exitDy=0;entryX=0.75;entryY=0;entryDx=0;entryDy=0;fontFamily=Architects Daughter;fontSource=https%3A%2F%2Ffonts.googleapis.com%2Fcss%3Ffamily%3DArchitects%2BDaughter;" parent="1" source="6O0iVEAwSI0Z_arGeJ4l-74" target="6O0iVEAwSI0Z_arGeJ4l-85" edge="1">
          <mxGeometry relative="1" as="geometry" />
        </mxCell>
        <mxCell id="6O0iVEAwSI0Z_arGeJ4l-74" value="Web User Interface" style="rounded=0;whiteSpace=wrap;html=1;hachureGap=4;fontFamily=Architects Daughter;fontSource=https%3A%2F%2Ffonts.googleapis.com%2Fcss%3Ffamily%3DArchitects%2BDaughter;" parent="1" vertex="1">
          <mxGeometry x="548" y="1249" width="140" height="60" as="geometry" />
        </mxCell>
        <mxCell id="6O0iVEAwSI0Z_arGeJ4l-75" value="" style="shape=umlActor;verticalLabelPosition=bottom;verticalAlign=top;html=1;outlineConnect=0;hachureGap=4;fontFamily=Architects Daughter;fontSource=https%3A%2F%2Ffonts.googleapis.com%2Fcss%3Ffamily%3DArchitects%2BDaughter;" parent="1" vertex="1">
          <mxGeometry x="730" y="1247" width="30" height="60" as="geometry" />
        </mxCell>
        <mxCell id="6O0iVEAwSI0Z_arGeJ4l-76" style="edgeStyle=orthogonalEdgeStyle;rounded=0;hachureGap=4;orthogonalLoop=1;jettySize=auto;html=1;exitX=0.25;exitY=0;exitDx=0;exitDy=0;entryX=0.25;entryY=1;entryDx=0;entryDy=0;fontFamily=Architects Daughter;fontSource=https%3A%2F%2Ffonts.googleapis.com%2Fcss%3Ffamily%3DArchitects%2BDaughter;" parent="1" source="6O0iVEAwSI0Z_arGeJ4l-78" target="6O0iVEAwSI0Z_arGeJ4l-74" edge="1">
          <mxGeometry relative="1" as="geometry" />
        </mxCell>
        <mxCell id="6O0iVEAwSI0Z_arGeJ4l-77" style="edgeStyle=orthogonalEdgeStyle;rounded=0;hachureGap=4;orthogonalLoop=1;jettySize=auto;html=1;exitX=0.75;exitY=1;exitDx=0;exitDy=0;entryX=1;entryY=0.75;entryDx=0;entryDy=0;fontFamily=Architects Daughter;fontSource=https%3A%2F%2Ffonts.googleapis.com%2Fcss%3Ffamily%3DArchitects%2BDaughter;" parent="1" source="6O0iVEAwSI0Z_arGeJ4l-78" target="6O0iVEAwSI0Z_arGeJ4l-81" edge="1">
          <mxGeometry relative="1" as="geometry" />
        </mxCell>
        <mxCell id="6O0iVEAwSI0Z_arGeJ4l-102" style="edgeStyle=orthogonalEdgeStyle;rounded=0;hachureGap=4;orthogonalLoop=1;jettySize=auto;html=1;exitX=0;exitY=0.75;exitDx=0;exitDy=0;entryX=1;entryY=0.75;entryDx=0;entryDy=0;fontFamily=Architects Daughter;fontSource=https%3A%2F%2Ffonts.googleapis.com%2Fcss%3Ffamily%3DArchitects%2BDaughter;" parent="1" source="6O0iVEAwSI0Z_arGeJ4l-78" target="6O0iVEAwSI0Z_arGeJ4l-85" edge="1">
          <mxGeometry relative="1" as="geometry" />
        </mxCell>
        <mxCell id="6O0iVEAwSI0Z_arGeJ4l-78" value="Data visualization Service" style="rounded=0;whiteSpace=wrap;html=1;hachureGap=4;fontFamily=Architects Daughter;fontSource=https%3A%2F%2Ffonts.googleapis.com%2Fcss%3Ffamily%3DArchitects%2BDaughter;" parent="1" vertex="1">
          <mxGeometry x="548" y="1399" width="140" height="60" as="geometry" />
        </mxCell>
        <mxCell id="6O0iVEAwSI0Z_arGeJ4l-79" style="edgeStyle=orthogonalEdgeStyle;rounded=0;hachureGap=4;orthogonalLoop=1;jettySize=auto;html=1;exitX=1;exitY=0.25;exitDx=0;exitDy=0;entryX=0.25;entryY=1;entryDx=0;entryDy=0;fontFamily=Architects Daughter;fontSource=https%3A%2F%2Ffonts.googleapis.com%2Fcss%3Ffamily%3DArchitects%2BDaughter;" parent="1" source="6O0iVEAwSI0Z_arGeJ4l-81" target="6O0iVEAwSI0Z_arGeJ4l-78" edge="1">
          <mxGeometry relative="1" as="geometry" />
        </mxCell>
        <mxCell id="6O0iVEAwSI0Z_arGeJ4l-81" value="Data Analysis Service" style="rounded=0;whiteSpace=wrap;html=1;hachureGap=4;fontFamily=Architects Daughter;fontSource=https%3A%2F%2Ffonts.googleapis.com%2Fcss%3Ffamily%3DArchitects%2BDaughter;" parent="1" vertex="1">
          <mxGeometry x="330" y="1555" width="140" height="60" as="geometry" />
        </mxCell>
        <mxCell id="6O0iVEAwSI0Z_arGeJ4l-83" style="edgeStyle=orthogonalEdgeStyle;rounded=0;hachureGap=4;orthogonalLoop=1;jettySize=auto;html=1;exitX=0;exitY=0.25;exitDx=0;exitDy=0;entryX=0.25;entryY=0;entryDx=0;entryDy=0;fontFamily=Architects Daughter;fontSource=https%3A%2F%2Ffonts.googleapis.com%2Fcss%3Ffamily%3DArchitects%2BDaughter;" parent="1" source="6O0iVEAwSI0Z_arGeJ4l-85" target="6O0iVEAwSI0Z_arGeJ4l-88" edge="1">
          <mxGeometry relative="1" as="geometry" />
        </mxCell>
        <mxCell id="6O0iVEAwSI0Z_arGeJ4l-84" style="edgeStyle=orthogonalEdgeStyle;rounded=0;hachureGap=4;orthogonalLoop=1;jettySize=auto;html=1;exitX=0.25;exitY=0;exitDx=0;exitDy=0;entryX=0;entryY=0.25;entryDx=0;entryDy=0;fontFamily=Architects Daughter;fontSource=https%3A%2F%2Ffonts.googleapis.com%2Fcss%3Ffamily%3DArchitects%2BDaughter;" parent="1" source="6O0iVEAwSI0Z_arGeJ4l-85" target="6O0iVEAwSI0Z_arGeJ4l-74" edge="1">
          <mxGeometry relative="1" as="geometry" />
        </mxCell>
        <mxCell id="6O0iVEAwSI0Z_arGeJ4l-97" style="edgeStyle=orthogonalEdgeStyle;rounded=0;hachureGap=4;orthogonalLoop=1;jettySize=auto;html=1;exitX=0.75;exitY=1;exitDx=0;exitDy=0;entryX=0.75;entryY=0;entryDx=0;entryDy=0;fontFamily=Architects Daughter;fontSource=https%3A%2F%2Ffonts.googleapis.com%2Fcss%3Ffamily%3DArchitects%2BDaughter;" parent="1" source="6O0iVEAwSI0Z_arGeJ4l-85" target="6O0iVEAwSI0Z_arGeJ4l-81" edge="1">
          <mxGeometry relative="1" as="geometry" />
        </mxCell>
        <mxCell id="6O0iVEAwSI0Z_arGeJ4l-101" style="edgeStyle=orthogonalEdgeStyle;rounded=0;hachureGap=4;orthogonalLoop=1;jettySize=auto;html=1;exitX=1;exitY=0.25;exitDx=0;exitDy=0;entryX=0;entryY=0.25;entryDx=0;entryDy=0;fontFamily=Architects Daughter;fontSource=https%3A%2F%2Ffonts.googleapis.com%2Fcss%3Ffamily%3DArchitects%2BDaughter;" parent="1" source="6O0iVEAwSI0Z_arGeJ4l-85" target="6O0iVEAwSI0Z_arGeJ4l-78" edge="1">
          <mxGeometry relative="1" as="geometry" />
        </mxCell>
        <mxCell id="6O0iVEAwSI0Z_arGeJ4l-85" value="Data Storage Service" style="rounded=0;whiteSpace=wrap;html=1;hachureGap=4;fontFamily=Architects Daughter;fontSource=https%3A%2F%2Ffonts.googleapis.com%2Fcss%3Ffamily%3DArchitects%2BDaughter;" parent="1" vertex="1">
          <mxGeometry x="330" y="1399" width="140" height="60" as="geometry" />
        </mxCell>
        <mxCell id="6O0iVEAwSI0Z_arGeJ4l-86" style="edgeStyle=orthogonalEdgeStyle;rounded=0;hachureGap=4;orthogonalLoop=1;jettySize=auto;html=1;exitX=0.75;exitY=0;exitDx=0;exitDy=0;entryX=0;entryY=0.75;entryDx=0;entryDy=0;fontFamily=Architects Daughter;fontSource=https%3A%2F%2Ffonts.googleapis.com%2Fcss%3Ffamily%3DArchitects%2BDaughter;" parent="1" source="6O0iVEAwSI0Z_arGeJ4l-88" target="6O0iVEAwSI0Z_arGeJ4l-85" edge="1">
          <mxGeometry relative="1" as="geometry" />
        </mxCell>
        <mxCell id="6O0iVEAwSI0Z_arGeJ4l-87" style="edgeStyle=orthogonalEdgeStyle;rounded=0;hachureGap=4;orthogonalLoop=1;jettySize=auto;html=1;exitX=0.25;exitY=1;exitDx=0;exitDy=0;entryX=0;entryY=0.75;entryDx=0;entryDy=0;fontFamily=Architects Daughter;fontSource=https%3A%2F%2Ffonts.googleapis.com%2Fcss%3Ffamily%3DArchitects%2BDaughter;" parent="1" source="6O0iVEAwSI0Z_arGeJ4l-88" target="6O0iVEAwSI0Z_arGeJ4l-91" edge="1">
          <mxGeometry relative="1" as="geometry" />
        </mxCell>
        <mxCell id="6O0iVEAwSI0Z_arGeJ4l-88" value="Real-Time Processing Service" style="rounded=0;whiteSpace=wrap;html=1;hachureGap=4;fontFamily=Architects Daughter;fontSource=https%3A%2F%2Ffonts.googleapis.com%2Fcss%3Ffamily%3DArchitects%2BDaughter;" parent="1" vertex="1">
          <mxGeometry x="120" y="1555" width="140" height="60" as="geometry" />
        </mxCell>
        <mxCell id="6O0iVEAwSI0Z_arGeJ4l-89" style="edgeStyle=orthogonalEdgeStyle;rounded=0;hachureGap=4;orthogonalLoop=1;jettySize=auto;html=1;entryX=0.75;entryY=1;entryDx=0;entryDy=0;fontFamily=Architects Daughter;fontSource=https%3A%2F%2Ffonts.googleapis.com%2Fcss%3Ffamily%3DArchitects%2BDaughter;exitX=0;exitY=0.25;exitDx=0;exitDy=0;" parent="1" source="6O0iVEAwSI0Z_arGeJ4l-91" target="6O0iVEAwSI0Z_arGeJ4l-88" edge="1">
          <mxGeometry relative="1" as="geometry">
            <mxPoint x="435" y="1692" as="sourcePoint" />
          </mxGeometry>
        </mxCell>
        <mxCell id="6O0iVEAwSI0Z_arGeJ4l-98" style="edgeStyle=orthogonalEdgeStyle;rounded=0;hachureGap=4;orthogonalLoop=1;jettySize=auto;html=1;exitX=1;exitY=0.25;exitDx=0;exitDy=0;entryX=0;entryY=0.5;entryDx=0;entryDy=0;fontFamily=Architects Daughter;fontSource=https%3A%2F%2Ffonts.googleapis.com%2Fcss%3Ffamily%3DArchitects%2BDaughter;" parent="1" source="6O0iVEAwSI0Z_arGeJ4l-91" target="6O0iVEAwSI0Z_arGeJ4l-93" edge="1">
          <mxGeometry relative="1" as="geometry" />
        </mxCell>
        <mxCell id="6O0iVEAwSI0Z_arGeJ4l-91" value="Data Ingestion Service" style="rounded=0;whiteSpace=wrap;html=1;hachureGap=4;fontFamily=Architects Daughter;fontSource=https%3A%2F%2Ffonts.googleapis.com%2Fcss%3Ffamily%3DArchitects%2BDaughter;" parent="1" vertex="1">
          <mxGeometry x="320" y="1699" width="140" height="60" as="geometry" />
        </mxCell>
        <mxCell id="6O0iVEAwSI0Z_arGeJ4l-99" style="edgeStyle=orthogonalEdgeStyle;rounded=0;hachureGap=4;orthogonalLoop=1;jettySize=auto;html=1;exitX=0;exitY=1;exitDx=0;exitDy=0;entryX=1;entryY=0.75;entryDx=0;entryDy=0;fontFamily=Architects Daughter;fontSource=https%3A%2F%2Ffonts.googleapis.com%2Fcss%3Ffamily%3DArchitects%2BDaughter;" parent="1" source="6O0iVEAwSI0Z_arGeJ4l-93" target="6O0iVEAwSI0Z_arGeJ4l-91" edge="1">
          <mxGeometry relative="1" as="geometry" />
        </mxCell>
        <mxCell id="6O0iVEAwSI0Z_arGeJ4l-93" value="External Services" style="ellipse;whiteSpace=wrap;html=1;aspect=fixed;hachureGap=4;fontFamily=Architects Daughter;fontSource=https%3A%2F%2Ffonts.googleapis.com%2Fcss%3Ffamily%3DArchitects%2BDaughter;" parent="1" vertex="1">
          <mxGeometry x="578" y="1675" width="80" height="80" as="geometry" />
        </mxCell>
        <mxCell id="6O0iVEAwSI0Z_arGeJ4l-94" value="" style="shape=cylinder3;whiteSpace=wrap;html=1;boundedLbl=1;backgroundOutline=1;size=15;hachureGap=4;fontFamily=Architects Daughter;fontSource=https%3A%2F%2Ffonts.googleapis.com%2Fcss%3Ffamily%3DArchitects%2BDaughter;" parent="1" vertex="1">
          <mxGeometry x="380" y="1340" width="40" height="50" as="geometry" />
        </mxCell>
        <mxCell id="6O0iVEAwSI0Z_arGeJ4l-58" value="" style="endArrow=none;html=1;rounded=0;hachureGap=4;fontFamily=Architects Daughter;fontSource=https%3A%2F%2Ffonts.googleapis.com%2Fcss%3Ffamily%3DArchitects%2BDaughter;strokeColor=#00CC66;entryX=0.5;entryY=1;entryDx=0;entryDy=0;exitX=0;exitY=0.5;exitDx=0;exitDy=0;" parent="1" source="6O0iVEAwSI0Z_arGeJ4l-63" target="6O0iVEAwSI0Z_arGeJ4l-60" edge="1">
          <mxGeometry width="50" height="50" relative="1" as="geometry">
            <mxPoint x="699" y="1262" as="sourcePoint" />
            <mxPoint x="699" y="1292" as="targetPoint" />
            <Array as="points">
              <mxPoint x="380" y="1255" />
              <mxPoint x="380" y="1410" />
              <mxPoint x="640" y="1410" />
              <mxPoint x="640" y="1290" />
            </Array>
          </mxGeometry>
        </mxCell>
        <mxCell id="6O0iVEAwSI0Z_arGeJ4l-103" value="&lt;font style=&quot;color: rgb(0, 204, 102);&quot;&gt;3. Retrieve data&lt;/font&gt;" style="text;html=1;align=center;verticalAlign=middle;whiteSpace=wrap;rounded=0;fontFamily=Architects Daughter;fontSource=https%3A%2F%2Ffonts.googleapis.com%2Fcss%3Ffamily%3DArchitects%2BDaughter;" parent="1" vertex="1">
          <mxGeometry x="440" y="1360" width="70" height="30" as="geometry" />
        </mxCell>
        <mxCell id="6O0iVEAwSI0Z_arGeJ4l-104" value="&lt;font style=&quot;color: rgb(0, 204, 102);&quot;&gt;4. Visualize data&lt;/font&gt;" style="text;html=1;align=center;verticalAlign=middle;whiteSpace=wrap;rounded=0;fontFamily=Architects Daughter;fontSource=https%3A%2F%2Ffonts.googleapis.com%2Fcss%3Ffamily%3DArchitects%2BDaughter;" parent="1" vertex="1">
          <mxGeometry x="660" y="1360" width="70" height="30" as="geometry" />
        </mxCell>
        <mxCell id="6O0iVEAwSI0Z_arGeJ4l-110" style="edgeStyle=orthogonalEdgeStyle;rounded=0;hachureGap=4;orthogonalLoop=1;jettySize=auto;html=1;exitX=0.75;exitY=1;exitDx=0;exitDy=0;entryX=0.75;entryY=0;entryDx=0;entryDy=0;fontFamily=Architects Daughter;fontSource=https%3A%2F%2Ffonts.googleapis.com%2Fcss%3Ffamily%3DArchitects%2BDaughter;" parent="1" source="6O0iVEAwSI0Z_arGeJ4l-112" target="6O0iVEAwSI0Z_arGeJ4l-117" edge="1">
          <mxGeometry relative="1" as="geometry" />
        </mxCell>
        <mxCell id="6O0iVEAwSI0Z_arGeJ4l-111" style="edgeStyle=orthogonalEdgeStyle;rounded=0;hachureGap=4;orthogonalLoop=1;jettySize=auto;html=1;exitX=0;exitY=0.75;exitDx=0;exitDy=0;entryX=0.75;entryY=0;entryDx=0;entryDy=0;fontFamily=Architects Daughter;fontSource=https%3A%2F%2Ffonts.googleapis.com%2Fcss%3Ffamily%3DArchitects%2BDaughter;" parent="1" source="6O0iVEAwSI0Z_arGeJ4l-112" target="6O0iVEAwSI0Z_arGeJ4l-125" edge="1">
          <mxGeometry relative="1" as="geometry" />
        </mxCell>
        <mxCell id="6O0iVEAwSI0Z_arGeJ4l-112" value="Web User Interface" style="rounded=0;whiteSpace=wrap;html=1;hachureGap=4;fontFamily=Architects Daughter;fontSource=https%3A%2F%2Ffonts.googleapis.com%2Fcss%3Ffamily%3DArchitects%2BDaughter;" parent="1" vertex="1">
          <mxGeometry x="553" y="481" width="140" height="60" as="geometry" />
        </mxCell>
        <mxCell id="6O0iVEAwSI0Z_arGeJ4l-113" value="" style="shape=umlActor;verticalLabelPosition=bottom;verticalAlign=top;html=1;outlineConnect=0;hachureGap=4;fontFamily=Architects Daughter;fontSource=https%3A%2F%2Ffonts.googleapis.com%2Fcss%3Ffamily%3DArchitects%2BDaughter;" parent="1" vertex="1">
          <mxGeometry x="705" y="479" width="30" height="60" as="geometry" />
        </mxCell>
        <mxCell id="6O0iVEAwSI0Z_arGeJ4l-114" style="edgeStyle=orthogonalEdgeStyle;rounded=0;hachureGap=4;orthogonalLoop=1;jettySize=auto;html=1;exitX=0.25;exitY=0;exitDx=0;exitDy=0;entryX=0.25;entryY=1;entryDx=0;entryDy=0;fontFamily=Architects Daughter;fontSource=https%3A%2F%2Ffonts.googleapis.com%2Fcss%3Ffamily%3DArchitects%2BDaughter;" parent="1" source="6O0iVEAwSI0Z_arGeJ4l-117" target="6O0iVEAwSI0Z_arGeJ4l-112" edge="1">
          <mxGeometry relative="1" as="geometry" />
        </mxCell>
        <mxCell id="6O0iVEAwSI0Z_arGeJ4l-115" style="edgeStyle=orthogonalEdgeStyle;rounded=0;hachureGap=4;orthogonalLoop=1;jettySize=auto;html=1;exitX=0.75;exitY=1;exitDx=0;exitDy=0;entryX=1;entryY=0.75;entryDx=0;entryDy=0;fontFamily=Architects Daughter;fontSource=https%3A%2F%2Ffonts.googleapis.com%2Fcss%3Ffamily%3DArchitects%2BDaughter;" parent="1" source="6O0iVEAwSI0Z_arGeJ4l-117" target="6O0iVEAwSI0Z_arGeJ4l-119" edge="1">
          <mxGeometry relative="1" as="geometry" />
        </mxCell>
        <mxCell id="6O0iVEAwSI0Z_arGeJ4l-116" style="edgeStyle=orthogonalEdgeStyle;rounded=0;hachureGap=4;orthogonalLoop=1;jettySize=auto;html=1;exitX=0;exitY=0.75;exitDx=0;exitDy=0;entryX=1;entryY=0.75;entryDx=0;entryDy=0;fontFamily=Architects Daughter;fontSource=https%3A%2F%2Ffonts.googleapis.com%2Fcss%3Ffamily%3DArchitects%2BDaughter;" parent="1" source="6O0iVEAwSI0Z_arGeJ4l-117" target="6O0iVEAwSI0Z_arGeJ4l-125" edge="1">
          <mxGeometry relative="1" as="geometry" />
        </mxCell>
        <mxCell id="6O0iVEAwSI0Z_arGeJ4l-117" value="Data visualization Service" style="rounded=0;whiteSpace=wrap;html=1;hachureGap=4;fontFamily=Architects Daughter;fontSource=https%3A%2F%2Ffonts.googleapis.com%2Fcss%3Ffamily%3DArchitects%2BDaughter;" parent="1" vertex="1">
          <mxGeometry x="553" y="631" width="140" height="60" as="geometry" />
        </mxCell>
        <mxCell id="6O0iVEAwSI0Z_arGeJ4l-118" style="edgeStyle=orthogonalEdgeStyle;rounded=0;hachureGap=4;orthogonalLoop=1;jettySize=auto;html=1;exitX=1;exitY=0.25;exitDx=0;exitDy=0;entryX=0.25;entryY=1;entryDx=0;entryDy=0;fontFamily=Architects Daughter;fontSource=https%3A%2F%2Ffonts.googleapis.com%2Fcss%3Ffamily%3DArchitects%2BDaughter;" parent="1" source="6O0iVEAwSI0Z_arGeJ4l-119" target="6O0iVEAwSI0Z_arGeJ4l-117" edge="1">
          <mxGeometry relative="1" as="geometry" />
        </mxCell>
        <mxCell id="6O0iVEAwSI0Z_arGeJ4l-119" value="Data Analysis Service" style="rounded=0;whiteSpace=wrap;html=1;hachureGap=4;fontFamily=Architects Daughter;fontSource=https%3A%2F%2Ffonts.googleapis.com%2Fcss%3Ffamily%3DArchitects%2BDaughter;" parent="1" vertex="1">
          <mxGeometry x="335" y="787" width="140" height="60" as="geometry" />
        </mxCell>
        <mxCell id="6O0iVEAwSI0Z_arGeJ4l-120" style="edgeStyle=orthogonalEdgeStyle;rounded=0;hachureGap=4;orthogonalLoop=1;jettySize=auto;html=1;exitX=0;exitY=0.25;exitDx=0;exitDy=0;entryX=0.25;entryY=0;entryDx=0;entryDy=0;fontFamily=Architects Daughter;fontSource=https%3A%2F%2Ffonts.googleapis.com%2Fcss%3Ffamily%3DArchitects%2BDaughter;" parent="1" source="6O0iVEAwSI0Z_arGeJ4l-125" target="6O0iVEAwSI0Z_arGeJ4l-128" edge="1">
          <mxGeometry relative="1" as="geometry" />
        </mxCell>
        <mxCell id="6O0iVEAwSI0Z_arGeJ4l-121" style="edgeStyle=orthogonalEdgeStyle;rounded=0;hachureGap=4;orthogonalLoop=1;jettySize=auto;html=1;exitX=0.25;exitY=0;exitDx=0;exitDy=0;entryX=0;entryY=0.25;entryDx=0;entryDy=0;fontFamily=Architects Daughter;fontSource=https%3A%2F%2Ffonts.googleapis.com%2Fcss%3Ffamily%3DArchitects%2BDaughter;" parent="1" source="6O0iVEAwSI0Z_arGeJ4l-125" target="6O0iVEAwSI0Z_arGeJ4l-112" edge="1">
          <mxGeometry relative="1" as="geometry" />
        </mxCell>
        <mxCell id="6O0iVEAwSI0Z_arGeJ4l-122" style="edgeStyle=orthogonalEdgeStyle;rounded=0;hachureGap=4;orthogonalLoop=1;jettySize=auto;html=1;exitX=0.25;exitY=1;exitDx=0;exitDy=0;entryX=0.25;entryY=0;entryDx=0;entryDy=0;fontFamily=Architects Daughter;fontSource=https%3A%2F%2Ffonts.googleapis.com%2Fcss%3Ffamily%3DArchitects%2BDaughter;" parent="1" source="6O0iVEAwSI0Z_arGeJ4l-125" target="6O0iVEAwSI0Z_arGeJ4l-119" edge="1">
          <mxGeometry relative="1" as="geometry" />
        </mxCell>
        <mxCell id="6O0iVEAwSI0Z_arGeJ4l-123" style="edgeStyle=orthogonalEdgeStyle;rounded=0;hachureGap=4;orthogonalLoop=1;jettySize=auto;html=1;exitX=0.75;exitY=1;exitDx=0;exitDy=0;entryX=0.75;entryY=0;entryDx=0;entryDy=0;fontFamily=Architects Daughter;fontSource=https%3A%2F%2Ffonts.googleapis.com%2Fcss%3Ffamily%3DArchitects%2BDaughter;" parent="1" source="6O0iVEAwSI0Z_arGeJ4l-125" target="6O0iVEAwSI0Z_arGeJ4l-119" edge="1">
          <mxGeometry relative="1" as="geometry" />
        </mxCell>
        <mxCell id="6O0iVEAwSI0Z_arGeJ4l-124" style="edgeStyle=orthogonalEdgeStyle;rounded=0;hachureGap=4;orthogonalLoop=1;jettySize=auto;html=1;exitX=1;exitY=0.25;exitDx=0;exitDy=0;entryX=0;entryY=0.25;entryDx=0;entryDy=0;fontFamily=Architects Daughter;fontSource=https%3A%2F%2Ffonts.googleapis.com%2Fcss%3Ffamily%3DArchitects%2BDaughter;" parent="1" source="6O0iVEAwSI0Z_arGeJ4l-125" target="6O0iVEAwSI0Z_arGeJ4l-117" edge="1">
          <mxGeometry relative="1" as="geometry" />
        </mxCell>
        <mxCell id="6O0iVEAwSI0Z_arGeJ4l-125" value="Data Storage Service" style="rounded=0;whiteSpace=wrap;html=1;hachureGap=4;fontFamily=Architects Daughter;fontSource=https%3A%2F%2Ffonts.googleapis.com%2Fcss%3Ffamily%3DArchitects%2BDaughter;" parent="1" vertex="1">
          <mxGeometry x="335" y="631" width="140" height="60" as="geometry" />
        </mxCell>
        <mxCell id="6O0iVEAwSI0Z_arGeJ4l-126" style="edgeStyle=orthogonalEdgeStyle;rounded=0;hachureGap=4;orthogonalLoop=1;jettySize=auto;html=1;exitX=0.75;exitY=0;exitDx=0;exitDy=0;entryX=0;entryY=0.75;entryDx=0;entryDy=0;fontFamily=Architects Daughter;fontSource=https%3A%2F%2Ffonts.googleapis.com%2Fcss%3Ffamily%3DArchitects%2BDaughter;" parent="1" source="6O0iVEAwSI0Z_arGeJ4l-128" target="6O0iVEAwSI0Z_arGeJ4l-125" edge="1">
          <mxGeometry relative="1" as="geometry" />
        </mxCell>
        <mxCell id="6O0iVEAwSI0Z_arGeJ4l-127" style="edgeStyle=orthogonalEdgeStyle;rounded=0;hachureGap=4;orthogonalLoop=1;jettySize=auto;html=1;exitX=0.25;exitY=1;exitDx=0;exitDy=0;entryX=0;entryY=0.75;entryDx=0;entryDy=0;fontFamily=Architects Daughter;fontSource=https%3A%2F%2Ffonts.googleapis.com%2Fcss%3Ffamily%3DArchitects%2BDaughter;" parent="1" source="6O0iVEAwSI0Z_arGeJ4l-128" target="6O0iVEAwSI0Z_arGeJ4l-131" edge="1">
          <mxGeometry relative="1" as="geometry" />
        </mxCell>
        <mxCell id="6O0iVEAwSI0Z_arGeJ4l-128" value="Real-Time Processing Service" style="rounded=0;whiteSpace=wrap;html=1;hachureGap=4;fontFamily=Architects Daughter;fontSource=https%3A%2F%2Ffonts.googleapis.com%2Fcss%3Ffamily%3DArchitects%2BDaughter;" parent="1" vertex="1">
          <mxGeometry x="125" y="787" width="140" height="60" as="geometry" />
        </mxCell>
        <mxCell id="6O0iVEAwSI0Z_arGeJ4l-129" style="edgeStyle=orthogonalEdgeStyle;rounded=0;hachureGap=4;orthogonalLoop=1;jettySize=auto;html=1;entryX=0.75;entryY=1;entryDx=0;entryDy=0;fontFamily=Architects Daughter;fontSource=https%3A%2F%2Ffonts.googleapis.com%2Fcss%3Ffamily%3DArchitects%2BDaughter;exitX=0;exitY=0.25;exitDx=0;exitDy=0;" parent="1" source="6O0iVEAwSI0Z_arGeJ4l-131" target="6O0iVEAwSI0Z_arGeJ4l-128" edge="1">
          <mxGeometry relative="1" as="geometry">
            <mxPoint x="440" y="924" as="sourcePoint" />
          </mxGeometry>
        </mxCell>
        <mxCell id="6O0iVEAwSI0Z_arGeJ4l-130" style="edgeStyle=orthogonalEdgeStyle;rounded=0;hachureGap=4;orthogonalLoop=1;jettySize=auto;html=1;exitX=1;exitY=0.25;exitDx=0;exitDy=0;entryX=0;entryY=0.5;entryDx=0;entryDy=0;fontFamily=Architects Daughter;fontSource=https%3A%2F%2Ffonts.googleapis.com%2Fcss%3Ffamily%3DArchitects%2BDaughter;" parent="1" source="6O0iVEAwSI0Z_arGeJ4l-131" target="6O0iVEAwSI0Z_arGeJ4l-133" edge="1">
          <mxGeometry relative="1" as="geometry" />
        </mxCell>
        <mxCell id="6O0iVEAwSI0Z_arGeJ4l-131" value="Data Ingestion Service" style="rounded=0;whiteSpace=wrap;html=1;hachureGap=4;fontFamily=Architects Daughter;fontSource=https%3A%2F%2Ffonts.googleapis.com%2Fcss%3Ffamily%3DArchitects%2BDaughter;" parent="1" vertex="1">
          <mxGeometry x="325" y="931" width="140" height="60" as="geometry" />
        </mxCell>
        <mxCell id="6O0iVEAwSI0Z_arGeJ4l-132" style="edgeStyle=orthogonalEdgeStyle;rounded=0;hachureGap=4;orthogonalLoop=1;jettySize=auto;html=1;exitX=0;exitY=1;exitDx=0;exitDy=0;entryX=1;entryY=0.75;entryDx=0;entryDy=0;fontFamily=Architects Daughter;fontSource=https%3A%2F%2Ffonts.googleapis.com%2Fcss%3Ffamily%3DArchitects%2BDaughter;" parent="1" source="6O0iVEAwSI0Z_arGeJ4l-133" target="6O0iVEAwSI0Z_arGeJ4l-131" edge="1">
          <mxGeometry relative="1" as="geometry" />
        </mxCell>
        <mxCell id="6O0iVEAwSI0Z_arGeJ4l-133" value="External Services" style="ellipse;whiteSpace=wrap;html=1;aspect=fixed;hachureGap=4;fontFamily=Architects Daughter;fontSource=https%3A%2F%2Ffonts.googleapis.com%2Fcss%3Ffamily%3DArchitects%2BDaughter;" parent="1" vertex="1">
          <mxGeometry x="583" y="907" width="80" height="80" as="geometry" />
        </mxCell>
        <mxCell id="6O0iVEAwSI0Z_arGeJ4l-134" value="" style="shape=cylinder3;whiteSpace=wrap;html=1;boundedLbl=1;backgroundOutline=1;size=15;hachureGap=4;fontFamily=Architects Daughter;fontSource=https%3A%2F%2Ffonts.googleapis.com%2Fcss%3Ffamily%3DArchitects%2BDaughter;" parent="1" vertex="1">
          <mxGeometry x="390" y="571" width="30" height="48" as="geometry" />
        </mxCell>
        <mxCell id="6O0iVEAwSI0Z_arGeJ4l-138" value="" style="edgeStyle=orthogonalEdgeStyle;rounded=0;hachureGap=4;orthogonalLoop=1;jettySize=auto;html=1;exitX=0.25;exitY=1;exitDx=0;exitDy=0;entryX=0.25;entryY=0;entryDx=0;entryDy=0;fontFamily=Architects Daughter;fontSource=https%3A%2F%2Ffonts.googleapis.com%2Fcss%3Ffamily%3DArchitects%2BDaughter;" parent="1" source="6O0iVEAwSI0Z_arGeJ4l-85" target="6O0iVEAwSI0Z_arGeJ4l-81" edge="1">
          <mxGeometry relative="1" as="geometry">
            <mxPoint x="365" y="1459" as="sourcePoint" />
            <mxPoint x="365" y="1555" as="targetPoint" />
          </mxGeometry>
        </mxCell>
        <mxCell id="6O0iVEAwSI0Z_arGeJ4l-57" value="" style="rounded=0;whiteSpace=wrap;html=1;hachureGap=4;fontFamily=Architects Daughter;fontSource=https%3A%2F%2Ffonts.googleapis.com%2Fcss%3Ffamily%3DArchitects%2BDaughter;fillColor=none;" parent="1" vertex="1">
          <mxGeometry x="80" y="1199" width="700" height="580" as="geometry" />
        </mxCell>
        <mxCell id="6O0iVEAwSI0Z_arGeJ4l-140" value="Analyze stock" style="text;html=1;align=center;verticalAlign=middle;resizable=0;points=[];autosize=1;strokeColor=none;fillColor=none;fontFamily=Architects Daughter;fontSource=https%3A%2F%2Ffonts.googleapis.com%2Fcss%3Ffamily%3DArchitects%2BDaughter;" parent="1" vertex="1">
          <mxGeometry x="867" y="1169" width="100" height="30" as="geometry" />
        </mxCell>
        <mxCell id="6O0iVEAwSI0Z_arGeJ4l-142" style="edgeStyle=orthogonalEdgeStyle;rounded=0;hachureGap=4;orthogonalLoop=1;jettySize=auto;html=1;exitX=0.75;exitY=1;exitDx=0;exitDy=0;entryX=0.75;entryY=0;entryDx=0;entryDy=0;fontFamily=Architects Daughter;fontSource=https%3A%2F%2Ffonts.googleapis.com%2Fcss%3Ffamily%3DArchitects%2BDaughter;" parent="1" source="6O0iVEAwSI0Z_arGeJ4l-144" target="6O0iVEAwSI0Z_arGeJ4l-149" edge="1">
          <mxGeometry relative="1" as="geometry" />
        </mxCell>
        <mxCell id="6O0iVEAwSI0Z_arGeJ4l-143" style="edgeStyle=orthogonalEdgeStyle;rounded=0;hachureGap=4;orthogonalLoop=1;jettySize=auto;html=1;exitX=0;exitY=0.75;exitDx=0;exitDy=0;entryX=0.75;entryY=0;entryDx=0;entryDy=0;fontFamily=Architects Daughter;fontSource=https%3A%2F%2Ffonts.googleapis.com%2Fcss%3Ffamily%3DArchitects%2BDaughter;" parent="1" source="6O0iVEAwSI0Z_arGeJ4l-144" target="6O0iVEAwSI0Z_arGeJ4l-157" edge="1">
          <mxGeometry relative="1" as="geometry" />
        </mxCell>
        <mxCell id="6O0iVEAwSI0Z_arGeJ4l-144" value="Web User Interface" style="rounded=0;whiteSpace=wrap;html=1;hachureGap=4;fontFamily=Architects Daughter;fontSource=https%3A%2F%2Ffonts.googleapis.com%2Fcss%3Ffamily%3DArchitects%2BDaughter;" parent="1" vertex="1">
          <mxGeometry x="1338" y="1251" width="140" height="60" as="geometry" />
        </mxCell>
        <mxCell id="6O0iVEAwSI0Z_arGeJ4l-145" value="" style="shape=umlActor;verticalLabelPosition=bottom;verticalAlign=top;html=1;outlineConnect=0;hachureGap=4;fontFamily=Architects Daughter;fontSource=https%3A%2F%2Ffonts.googleapis.com%2Fcss%3Ffamily%3DArchitects%2BDaughter;" parent="1" vertex="1">
          <mxGeometry x="1509" y="1247" width="30" height="60" as="geometry" />
        </mxCell>
        <mxCell id="6O0iVEAwSI0Z_arGeJ4l-146" style="edgeStyle=orthogonalEdgeStyle;rounded=0;hachureGap=4;orthogonalLoop=1;jettySize=auto;html=1;exitX=0.25;exitY=0;exitDx=0;exitDy=0;entryX=0.25;entryY=1;entryDx=0;entryDy=0;fontFamily=Architects Daughter;fontSource=https%3A%2F%2Ffonts.googleapis.com%2Fcss%3Ffamily%3DArchitects%2BDaughter;" parent="1" source="6O0iVEAwSI0Z_arGeJ4l-149" target="6O0iVEAwSI0Z_arGeJ4l-144" edge="1">
          <mxGeometry relative="1" as="geometry" />
        </mxCell>
        <mxCell id="6O0iVEAwSI0Z_arGeJ4l-147" style="edgeStyle=orthogonalEdgeStyle;rounded=0;hachureGap=4;orthogonalLoop=1;jettySize=auto;html=1;exitX=0.75;exitY=1;exitDx=0;exitDy=0;entryX=1;entryY=0.75;entryDx=0;entryDy=0;fontFamily=Architects Daughter;fontSource=https%3A%2F%2Ffonts.googleapis.com%2Fcss%3Ffamily%3DArchitects%2BDaughter;" parent="1" source="6O0iVEAwSI0Z_arGeJ4l-149" target="6O0iVEAwSI0Z_arGeJ4l-151" edge="1">
          <mxGeometry relative="1" as="geometry" />
        </mxCell>
        <mxCell id="6O0iVEAwSI0Z_arGeJ4l-148" style="edgeStyle=orthogonalEdgeStyle;rounded=0;hachureGap=4;orthogonalLoop=1;jettySize=auto;html=1;exitX=0;exitY=0.75;exitDx=0;exitDy=0;entryX=1;entryY=0.75;entryDx=0;entryDy=0;fontFamily=Architects Daughter;fontSource=https%3A%2F%2Ffonts.googleapis.com%2Fcss%3Ffamily%3DArchitects%2BDaughter;" parent="1" source="6O0iVEAwSI0Z_arGeJ4l-149" target="6O0iVEAwSI0Z_arGeJ4l-157" edge="1">
          <mxGeometry relative="1" as="geometry" />
        </mxCell>
        <mxCell id="6O0iVEAwSI0Z_arGeJ4l-149" value="Data visualization Service" style="rounded=0;whiteSpace=wrap;html=1;hachureGap=4;fontFamily=Architects Daughter;fontSource=https%3A%2F%2Ffonts.googleapis.com%2Fcss%3Ffamily%3DArchitects%2BDaughter;" parent="1" vertex="1">
          <mxGeometry x="1338" y="1401" width="140" height="60" as="geometry" />
        </mxCell>
        <mxCell id="6O0iVEAwSI0Z_arGeJ4l-150" style="edgeStyle=orthogonalEdgeStyle;rounded=0;hachureGap=4;orthogonalLoop=1;jettySize=auto;html=1;exitX=1;exitY=0.25;exitDx=0;exitDy=0;entryX=0.25;entryY=1;entryDx=0;entryDy=0;fontFamily=Architects Daughter;fontSource=https%3A%2F%2Ffonts.googleapis.com%2Fcss%3Ffamily%3DArchitects%2BDaughter;" parent="1" source="6O0iVEAwSI0Z_arGeJ4l-151" target="6O0iVEAwSI0Z_arGeJ4l-149" edge="1">
          <mxGeometry relative="1" as="geometry" />
        </mxCell>
        <mxCell id="6O0iVEAwSI0Z_arGeJ4l-151" value="Data Analysis Service" style="rounded=0;whiteSpace=wrap;html=1;hachureGap=4;fontFamily=Architects Daughter;fontSource=https%3A%2F%2Ffonts.googleapis.com%2Fcss%3Ffamily%3DArchitects%2BDaughter;" parent="1" vertex="1">
          <mxGeometry x="1120" y="1557" width="140" height="60" as="geometry" />
        </mxCell>
        <mxCell id="6O0iVEAwSI0Z_arGeJ4l-152" style="edgeStyle=orthogonalEdgeStyle;rounded=0;hachureGap=4;orthogonalLoop=1;jettySize=auto;html=1;exitX=0;exitY=0.25;exitDx=0;exitDy=0;entryX=0.25;entryY=0;entryDx=0;entryDy=0;fontFamily=Architects Daughter;fontSource=https%3A%2F%2Ffonts.googleapis.com%2Fcss%3Ffamily%3DArchitects%2BDaughter;" parent="1" source="6O0iVEAwSI0Z_arGeJ4l-157" target="6O0iVEAwSI0Z_arGeJ4l-160" edge="1">
          <mxGeometry relative="1" as="geometry" />
        </mxCell>
        <mxCell id="6O0iVEAwSI0Z_arGeJ4l-153" style="edgeStyle=orthogonalEdgeStyle;rounded=0;hachureGap=4;orthogonalLoop=1;jettySize=auto;html=1;exitX=0.25;exitY=0;exitDx=0;exitDy=0;entryX=0;entryY=0.25;entryDx=0;entryDy=0;fontFamily=Architects Daughter;fontSource=https%3A%2F%2Ffonts.googleapis.com%2Fcss%3Ffamily%3DArchitects%2BDaughter;" parent="1" source="6O0iVEAwSI0Z_arGeJ4l-157" target="6O0iVEAwSI0Z_arGeJ4l-144" edge="1">
          <mxGeometry relative="1" as="geometry" />
        </mxCell>
        <mxCell id="6O0iVEAwSI0Z_arGeJ4l-154" style="edgeStyle=orthogonalEdgeStyle;rounded=0;hachureGap=4;orthogonalLoop=1;jettySize=auto;html=1;exitX=0.25;exitY=1;exitDx=0;exitDy=0;entryX=0.25;entryY=0;entryDx=0;entryDy=0;fontFamily=Architects Daughter;fontSource=https%3A%2F%2Ffonts.googleapis.com%2Fcss%3Ffamily%3DArchitects%2BDaughter;" parent="1" source="6O0iVEAwSI0Z_arGeJ4l-157" target="6O0iVEAwSI0Z_arGeJ4l-151" edge="1">
          <mxGeometry relative="1" as="geometry" />
        </mxCell>
        <mxCell id="6O0iVEAwSI0Z_arGeJ4l-155" style="edgeStyle=orthogonalEdgeStyle;rounded=0;hachureGap=4;orthogonalLoop=1;jettySize=auto;html=1;exitX=0.75;exitY=1;exitDx=0;exitDy=0;entryX=0.75;entryY=0;entryDx=0;entryDy=0;fontFamily=Architects Daughter;fontSource=https%3A%2F%2Ffonts.googleapis.com%2Fcss%3Ffamily%3DArchitects%2BDaughter;" parent="1" source="6O0iVEAwSI0Z_arGeJ4l-157" target="6O0iVEAwSI0Z_arGeJ4l-151" edge="1">
          <mxGeometry relative="1" as="geometry" />
        </mxCell>
        <mxCell id="6O0iVEAwSI0Z_arGeJ4l-156" style="edgeStyle=orthogonalEdgeStyle;rounded=0;hachureGap=4;orthogonalLoop=1;jettySize=auto;html=1;exitX=1;exitY=0.25;exitDx=0;exitDy=0;entryX=0;entryY=0.25;entryDx=0;entryDy=0;fontFamily=Architects Daughter;fontSource=https%3A%2F%2Ffonts.googleapis.com%2Fcss%3Ffamily%3DArchitects%2BDaughter;" parent="1" source="6O0iVEAwSI0Z_arGeJ4l-157" target="6O0iVEAwSI0Z_arGeJ4l-149" edge="1">
          <mxGeometry relative="1" as="geometry" />
        </mxCell>
        <mxCell id="6O0iVEAwSI0Z_arGeJ4l-157" value="Data Storage Service" style="rounded=0;whiteSpace=wrap;html=1;hachureGap=4;fontFamily=Architects Daughter;fontSource=https%3A%2F%2Ffonts.googleapis.com%2Fcss%3Ffamily%3DArchitects%2BDaughter;" parent="1" vertex="1">
          <mxGeometry x="1120" y="1401" width="140" height="60" as="geometry" />
        </mxCell>
        <mxCell id="6O0iVEAwSI0Z_arGeJ4l-158" style="edgeStyle=orthogonalEdgeStyle;rounded=0;hachureGap=4;orthogonalLoop=1;jettySize=auto;html=1;exitX=0.75;exitY=0;exitDx=0;exitDy=0;entryX=0;entryY=0.75;entryDx=0;entryDy=0;fontFamily=Architects Daughter;fontSource=https%3A%2F%2Ffonts.googleapis.com%2Fcss%3Ffamily%3DArchitects%2BDaughter;" parent="1" source="6O0iVEAwSI0Z_arGeJ4l-160" target="6O0iVEAwSI0Z_arGeJ4l-157" edge="1">
          <mxGeometry relative="1" as="geometry" />
        </mxCell>
        <mxCell id="6O0iVEAwSI0Z_arGeJ4l-159" style="edgeStyle=orthogonalEdgeStyle;rounded=0;hachureGap=4;orthogonalLoop=1;jettySize=auto;html=1;exitX=0.25;exitY=1;exitDx=0;exitDy=0;entryX=0;entryY=0.75;entryDx=0;entryDy=0;fontFamily=Architects Daughter;fontSource=https%3A%2F%2Ffonts.googleapis.com%2Fcss%3Ffamily%3DArchitects%2BDaughter;" parent="1" source="6O0iVEAwSI0Z_arGeJ4l-160" target="6O0iVEAwSI0Z_arGeJ4l-163" edge="1">
          <mxGeometry relative="1" as="geometry" />
        </mxCell>
        <mxCell id="6O0iVEAwSI0Z_arGeJ4l-160" value="Real-Time Processing Service" style="rounded=0;whiteSpace=wrap;html=1;hachureGap=4;fontFamily=Architects Daughter;fontSource=https%3A%2F%2Ffonts.googleapis.com%2Fcss%3Ffamily%3DArchitects%2BDaughter;" parent="1" vertex="1">
          <mxGeometry x="910" y="1557" width="140" height="60" as="geometry" />
        </mxCell>
        <mxCell id="6O0iVEAwSI0Z_arGeJ4l-161" style="edgeStyle=orthogonalEdgeStyle;rounded=0;hachureGap=4;orthogonalLoop=1;jettySize=auto;html=1;entryX=0.75;entryY=1;entryDx=0;entryDy=0;fontFamily=Architects Daughter;fontSource=https%3A%2F%2Ffonts.googleapis.com%2Fcss%3Ffamily%3DArchitects%2BDaughter;exitX=0;exitY=0.25;exitDx=0;exitDy=0;" parent="1" source="6O0iVEAwSI0Z_arGeJ4l-163" target="6O0iVEAwSI0Z_arGeJ4l-160" edge="1">
          <mxGeometry relative="1" as="geometry">
            <mxPoint x="1225" y="1694" as="sourcePoint" />
          </mxGeometry>
        </mxCell>
        <mxCell id="6O0iVEAwSI0Z_arGeJ4l-162" style="edgeStyle=orthogonalEdgeStyle;rounded=0;hachureGap=4;orthogonalLoop=1;jettySize=auto;html=1;exitX=1;exitY=0.25;exitDx=0;exitDy=0;entryX=0;entryY=0.5;entryDx=0;entryDy=0;fontFamily=Architects Daughter;fontSource=https%3A%2F%2Ffonts.googleapis.com%2Fcss%3Ffamily%3DArchitects%2BDaughter;" parent="1" source="6O0iVEAwSI0Z_arGeJ4l-163" target="6O0iVEAwSI0Z_arGeJ4l-165" edge="1">
          <mxGeometry relative="1" as="geometry" />
        </mxCell>
        <mxCell id="6O0iVEAwSI0Z_arGeJ4l-163" value="Data Ingestion Service" style="rounded=0;whiteSpace=wrap;html=1;hachureGap=4;fontFamily=Architects Daughter;fontSource=https%3A%2F%2Ffonts.googleapis.com%2Fcss%3Ffamily%3DArchitects%2BDaughter;" parent="1" vertex="1">
          <mxGeometry x="1110" y="1701" width="140" height="60" as="geometry" />
        </mxCell>
        <mxCell id="6O0iVEAwSI0Z_arGeJ4l-164" style="edgeStyle=orthogonalEdgeStyle;rounded=0;hachureGap=4;orthogonalLoop=1;jettySize=auto;html=1;exitX=0;exitY=1;exitDx=0;exitDy=0;entryX=1;entryY=0.75;entryDx=0;entryDy=0;fontFamily=Architects Daughter;fontSource=https%3A%2F%2Ffonts.googleapis.com%2Fcss%3Ffamily%3DArchitects%2BDaughter;" parent="1" source="6O0iVEAwSI0Z_arGeJ4l-165" target="6O0iVEAwSI0Z_arGeJ4l-163" edge="1">
          <mxGeometry relative="1" as="geometry" />
        </mxCell>
        <mxCell id="6O0iVEAwSI0Z_arGeJ4l-165" value="External Services" style="ellipse;whiteSpace=wrap;html=1;aspect=fixed;hachureGap=4;fontFamily=Architects Daughter;fontSource=https%3A%2F%2Ffonts.googleapis.com%2Fcss%3Ffamily%3DArchitects%2BDaughter;" parent="1" vertex="1">
          <mxGeometry x="1368" y="1677" width="80" height="80" as="geometry" />
        </mxCell>
        <mxCell id="6O0iVEAwSI0Z_arGeJ4l-166" value="" style="shape=cylinder3;whiteSpace=wrap;html=1;boundedLbl=1;backgroundOutline=1;size=15;hachureGap=4;fontFamily=Architects Daughter;fontSource=https%3A%2F%2Ffonts.googleapis.com%2Fcss%3Ffamily%3DArchitects%2BDaughter;" parent="1" vertex="1">
          <mxGeometry x="1175" y="1341" width="30" height="48" as="geometry" />
        </mxCell>
        <mxCell id="6O0iVEAwSI0Z_arGeJ4l-167" value="" style="rounded=0;whiteSpace=wrap;html=1;hachureGap=4;fontFamily=Architects Daughter;fontSource=https%3A%2F%2Ffonts.googleapis.com%2Fcss%3Ffamily%3DArchitects%2BDaughter;fillColor=#00CC66;strokeColor=#00CC66;rotation=90;" parent="1" vertex="1">
          <mxGeometry x="1479" y="1286" width="30" height="10" as="geometry" />
        </mxCell>
        <mxCell id="6O0iVEAwSI0Z_arGeJ4l-168" value="" style="ellipse;whiteSpace=wrap;html=1;aspect=fixed;hachureGap=4;fontFamily=Architects Daughter;fontSource=https%3A%2F%2Ffonts.googleapis.com%2Fcss%3Ffamily%3DArchitects%2BDaughter;strokeColor=#00CC66;fillColor=#00CC66;" parent="1" vertex="1">
          <mxGeometry x="1486" y="1247" width="16" height="16" as="geometry" />
        </mxCell>
        <mxCell id="6O0iVEAwSI0Z_arGeJ4l-169" value="&lt;font style=&quot;color: rgb(0, 204, 102);&quot;&gt;1. Analyze for issuer&lt;/font&gt;" style="text;html=1;align=center;verticalAlign=middle;whiteSpace=wrap;rounded=0;fontFamily=Architects Daughter;fontSource=https%3A%2F%2Ffonts.googleapis.com%2Fcss%3Ffamily%3DArchitects%2BDaughter;" parent="1" vertex="1">
          <mxGeometry x="1430" y="1217" width="80" height="30" as="geometry" />
        </mxCell>
        <mxCell id="6O0iVEAwSI0Z_arGeJ4l-170" value="" style="endArrow=none;html=1;rounded=0;hachureGap=4;fontFamily=Architects Daughter;fontSource=https%3A%2F%2Ffonts.googleapis.com%2Fcss%3Ffamily%3DArchitects%2BDaughter;strokeColor=#00CC66;entryX=0.5;entryY=1;entryDx=0;entryDy=0;exitX=0;exitY=0.5;exitDx=0;exitDy=0;" parent="1" source="6O0iVEAwSI0Z_arGeJ4l-168" target="6O0iVEAwSI0Z_arGeJ4l-167" edge="1">
          <mxGeometry width="50" height="50" relative="1" as="geometry">
            <mxPoint x="1489" y="1262" as="sourcePoint" />
            <mxPoint x="1489" y="1292" as="targetPoint" />
            <Array as="points">
              <mxPoint x="1170" y="1255" />
              <mxPoint x="1170" y="1569" />
              <mxPoint x="1430" y="1569" />
              <mxPoint x="1430" y="1290" />
            </Array>
          </mxGeometry>
        </mxCell>
        <mxCell id="6O0iVEAwSI0Z_arGeJ4l-171" value="&lt;font style=&quot;color: rgb(0, 204, 102);&quot;&gt;2. Find issuer data with id&lt;/font&gt;" style="text;html=1;align=center;verticalAlign=middle;whiteSpace=wrap;rounded=0;fontFamily=Architects Daughter;fontSource=https%3A%2F%2Ffonts.googleapis.com%2Fcss%3Ffamily%3DArchitects%2BDaughter;" parent="1" vertex="1">
          <mxGeometry x="1070" y="1359" width="80" height="30" as="geometry" />
        </mxCell>
        <mxCell id="6O0iVEAwSI0Z_arGeJ4l-172" value="&lt;font style=&quot;color: rgb(0, 204, 102);&quot;&gt;3. Analyze data&lt;/font&gt;" style="text;html=1;align=center;verticalAlign=middle;whiteSpace=wrap;rounded=0;fontFamily=Architects Daughter;fontSource=https%3A%2F%2Ffonts.googleapis.com%2Fcss%3Ffamily%3DArchitects%2BDaughter;" parent="1" vertex="1">
          <mxGeometry x="1070" y="1515" width="80" height="30" as="geometry" />
        </mxCell>
        <mxCell id="6O0iVEAwSI0Z_arGeJ4l-173" value="&lt;font style=&quot;color: rgb(0, 204, 102);&quot;&gt;4. Return data analysis&lt;/font&gt;" style="text;html=1;align=center;verticalAlign=middle;whiteSpace=wrap;rounded=0;fontFamily=Architects Daughter;fontSource=https%3A%2F%2Ffonts.googleapis.com%2Fcss%3Ffamily%3DArchitects%2BDaughter;" parent="1" vertex="1">
          <mxGeometry x="1270" y="1527" width="80" height="30" as="geometry" />
        </mxCell>
        <mxCell id="6O0iVEAwSI0Z_arGeJ4l-174" value="&lt;font style=&quot;color: rgb(0, 204, 102);&quot;&gt;5. Visualize data analysis&lt;/font&gt;" style="text;html=1;align=center;verticalAlign=middle;whiteSpace=wrap;rounded=0;fontFamily=Architects Daughter;fontSource=https%3A%2F%2Ffonts.googleapis.com%2Fcss%3Ffamily%3DArchitects%2BDaughter;" parent="1" vertex="1">
          <mxGeometry x="1448" y="1359" width="80" height="30" as="geometry" />
        </mxCell>
        <mxCell id="6O0iVEAwSI0Z_arGeJ4l-175" style="edgeStyle=orthogonalEdgeStyle;rounded=0;hachureGap=4;orthogonalLoop=1;jettySize=auto;html=1;exitX=0.75;exitY=1;exitDx=0;exitDy=0;entryX=0.75;entryY=0;entryDx=0;entryDy=0;fontFamily=Architects Daughter;fontSource=https%3A%2F%2Ffonts.googleapis.com%2Fcss%3Ffamily%3DArchitects%2BDaughter;" parent="1" source="6O0iVEAwSI0Z_arGeJ4l-177" target="6O0iVEAwSI0Z_arGeJ4l-182" edge="1">
          <mxGeometry relative="1" as="geometry" />
        </mxCell>
        <mxCell id="6O0iVEAwSI0Z_arGeJ4l-176" style="edgeStyle=orthogonalEdgeStyle;rounded=0;hachureGap=4;orthogonalLoop=1;jettySize=auto;html=1;exitX=0;exitY=0.75;exitDx=0;exitDy=0;entryX=0.75;entryY=0;entryDx=0;entryDy=0;fontFamily=Architects Daughter;fontSource=https%3A%2F%2Ffonts.googleapis.com%2Fcss%3Ffamily%3DArchitects%2BDaughter;" parent="1" source="6O0iVEAwSI0Z_arGeJ4l-177" target="6O0iVEAwSI0Z_arGeJ4l-190" edge="1">
          <mxGeometry relative="1" as="geometry" />
        </mxCell>
        <mxCell id="6O0iVEAwSI0Z_arGeJ4l-177" value="Web User Interface" style="rounded=0;whiteSpace=wrap;html=1;hachureGap=4;fontFamily=Architects Daughter;fontSource=https%3A%2F%2Ffonts.googleapis.com%2Fcss%3Ffamily%3DArchitects%2BDaughter;" parent="1" vertex="1">
          <mxGeometry x="2163" y="1251" width="140" height="60" as="geometry" />
        </mxCell>
        <mxCell id="6O0iVEAwSI0Z_arGeJ4l-178" value="" style="shape=umlActor;verticalLabelPosition=bottom;verticalAlign=top;html=1;outlineConnect=0;hachureGap=4;fontFamily=Architects Daughter;fontSource=https%3A%2F%2Ffonts.googleapis.com%2Fcss%3Ffamily%3DArchitects%2BDaughter;" parent="1" vertex="1">
          <mxGeometry x="2334" y="1247" width="30" height="60" as="geometry" />
        </mxCell>
        <mxCell id="6O0iVEAwSI0Z_arGeJ4l-179" style="edgeStyle=orthogonalEdgeStyle;rounded=0;hachureGap=4;orthogonalLoop=1;jettySize=auto;html=1;exitX=0.25;exitY=0;exitDx=0;exitDy=0;entryX=0.25;entryY=1;entryDx=0;entryDy=0;fontFamily=Architects Daughter;fontSource=https%3A%2F%2Ffonts.googleapis.com%2Fcss%3Ffamily%3DArchitects%2BDaughter;" parent="1" source="6O0iVEAwSI0Z_arGeJ4l-182" target="6O0iVEAwSI0Z_arGeJ4l-177" edge="1">
          <mxGeometry relative="1" as="geometry" />
        </mxCell>
        <mxCell id="6O0iVEAwSI0Z_arGeJ4l-180" style="edgeStyle=orthogonalEdgeStyle;rounded=0;hachureGap=4;orthogonalLoop=1;jettySize=auto;html=1;exitX=0.75;exitY=1;exitDx=0;exitDy=0;entryX=1;entryY=0.75;entryDx=0;entryDy=0;fontFamily=Architects Daughter;fontSource=https%3A%2F%2Ffonts.googleapis.com%2Fcss%3Ffamily%3DArchitects%2BDaughter;" parent="1" source="6O0iVEAwSI0Z_arGeJ4l-182" target="6O0iVEAwSI0Z_arGeJ4l-184" edge="1">
          <mxGeometry relative="1" as="geometry" />
        </mxCell>
        <mxCell id="6O0iVEAwSI0Z_arGeJ4l-181" style="edgeStyle=orthogonalEdgeStyle;rounded=0;hachureGap=4;orthogonalLoop=1;jettySize=auto;html=1;exitX=0;exitY=0.75;exitDx=0;exitDy=0;entryX=1;entryY=0.75;entryDx=0;entryDy=0;fontFamily=Architects Daughter;fontSource=https%3A%2F%2Ffonts.googleapis.com%2Fcss%3Ffamily%3DArchitects%2BDaughter;" parent="1" source="6O0iVEAwSI0Z_arGeJ4l-182" target="6O0iVEAwSI0Z_arGeJ4l-190" edge="1">
          <mxGeometry relative="1" as="geometry" />
        </mxCell>
        <mxCell id="6O0iVEAwSI0Z_arGeJ4l-182" value="Data visualization Service" style="rounded=0;whiteSpace=wrap;html=1;hachureGap=4;fontFamily=Architects Daughter;fontSource=https%3A%2F%2Ffonts.googleapis.com%2Fcss%3Ffamily%3DArchitects%2BDaughter;" parent="1" vertex="1">
          <mxGeometry x="2163" y="1401" width="140" height="60" as="geometry" />
        </mxCell>
        <mxCell id="6O0iVEAwSI0Z_arGeJ4l-183" style="edgeStyle=orthogonalEdgeStyle;rounded=0;hachureGap=4;orthogonalLoop=1;jettySize=auto;html=1;exitX=1;exitY=0.25;exitDx=0;exitDy=0;entryX=0.25;entryY=1;entryDx=0;entryDy=0;fontFamily=Architects Daughter;fontSource=https%3A%2F%2Ffonts.googleapis.com%2Fcss%3Ffamily%3DArchitects%2BDaughter;" parent="1" source="6O0iVEAwSI0Z_arGeJ4l-184" target="6O0iVEAwSI0Z_arGeJ4l-182" edge="1">
          <mxGeometry relative="1" as="geometry" />
        </mxCell>
        <mxCell id="6O0iVEAwSI0Z_arGeJ4l-184" value="Data Analysis Service" style="rounded=0;whiteSpace=wrap;html=1;hachureGap=4;fontFamily=Architects Daughter;fontSource=https%3A%2F%2Ffonts.googleapis.com%2Fcss%3Ffamily%3DArchitects%2BDaughter;" parent="1" vertex="1">
          <mxGeometry x="1945" y="1557" width="140" height="60" as="geometry" />
        </mxCell>
        <mxCell id="6O0iVEAwSI0Z_arGeJ4l-185" style="edgeStyle=orthogonalEdgeStyle;rounded=0;hachureGap=4;orthogonalLoop=1;jettySize=auto;html=1;exitX=0;exitY=0.25;exitDx=0;exitDy=0;entryX=0.25;entryY=0;entryDx=0;entryDy=0;fontFamily=Architects Daughter;fontSource=https%3A%2F%2Ffonts.googleapis.com%2Fcss%3Ffamily%3DArchitects%2BDaughter;" parent="1" source="6O0iVEAwSI0Z_arGeJ4l-190" target="6O0iVEAwSI0Z_arGeJ4l-193" edge="1">
          <mxGeometry relative="1" as="geometry" />
        </mxCell>
        <mxCell id="6O0iVEAwSI0Z_arGeJ4l-186" style="edgeStyle=orthogonalEdgeStyle;rounded=0;hachureGap=4;orthogonalLoop=1;jettySize=auto;html=1;exitX=0.25;exitY=0;exitDx=0;exitDy=0;entryX=0;entryY=0.25;entryDx=0;entryDy=0;fontFamily=Architects Daughter;fontSource=https%3A%2F%2Ffonts.googleapis.com%2Fcss%3Ffamily%3DArchitects%2BDaughter;" parent="1" source="6O0iVEAwSI0Z_arGeJ4l-190" target="6O0iVEAwSI0Z_arGeJ4l-177" edge="1">
          <mxGeometry relative="1" as="geometry" />
        </mxCell>
        <mxCell id="6O0iVEAwSI0Z_arGeJ4l-187" style="edgeStyle=orthogonalEdgeStyle;rounded=0;hachureGap=4;orthogonalLoop=1;jettySize=auto;html=1;exitX=0.25;exitY=1;exitDx=0;exitDy=0;entryX=0.25;entryY=0;entryDx=0;entryDy=0;fontFamily=Architects Daughter;fontSource=https%3A%2F%2Ffonts.googleapis.com%2Fcss%3Ffamily%3DArchitects%2BDaughter;" parent="1" source="6O0iVEAwSI0Z_arGeJ4l-190" target="6O0iVEAwSI0Z_arGeJ4l-184" edge="1">
          <mxGeometry relative="1" as="geometry" />
        </mxCell>
        <mxCell id="6O0iVEAwSI0Z_arGeJ4l-188" style="edgeStyle=orthogonalEdgeStyle;rounded=0;hachureGap=4;orthogonalLoop=1;jettySize=auto;html=1;exitX=0.75;exitY=1;exitDx=0;exitDy=0;entryX=0.75;entryY=0;entryDx=0;entryDy=0;fontFamily=Architects Daughter;fontSource=https%3A%2F%2Ffonts.googleapis.com%2Fcss%3Ffamily%3DArchitects%2BDaughter;" parent="1" source="6O0iVEAwSI0Z_arGeJ4l-190" target="6O0iVEAwSI0Z_arGeJ4l-184" edge="1">
          <mxGeometry relative="1" as="geometry" />
        </mxCell>
        <mxCell id="6O0iVEAwSI0Z_arGeJ4l-189" style="edgeStyle=orthogonalEdgeStyle;rounded=0;hachureGap=4;orthogonalLoop=1;jettySize=auto;html=1;exitX=1;exitY=0.25;exitDx=0;exitDy=0;entryX=0;entryY=0.25;entryDx=0;entryDy=0;fontFamily=Architects Daughter;fontSource=https%3A%2F%2Ffonts.googleapis.com%2Fcss%3Ffamily%3DArchitects%2BDaughter;" parent="1" source="6O0iVEAwSI0Z_arGeJ4l-190" target="6O0iVEAwSI0Z_arGeJ4l-182" edge="1">
          <mxGeometry relative="1" as="geometry" />
        </mxCell>
        <mxCell id="6O0iVEAwSI0Z_arGeJ4l-190" value="Data Storage Service" style="rounded=0;whiteSpace=wrap;html=1;hachureGap=4;fontFamily=Architects Daughter;fontSource=https%3A%2F%2Ffonts.googleapis.com%2Fcss%3Ffamily%3DArchitects%2BDaughter;" parent="1" vertex="1">
          <mxGeometry x="1945" y="1401" width="140" height="60" as="geometry" />
        </mxCell>
        <mxCell id="6O0iVEAwSI0Z_arGeJ4l-191" style="edgeStyle=orthogonalEdgeStyle;rounded=0;hachureGap=4;orthogonalLoop=1;jettySize=auto;html=1;exitX=0.75;exitY=0;exitDx=0;exitDy=0;entryX=0;entryY=0.75;entryDx=0;entryDy=0;fontFamily=Architects Daughter;fontSource=https%3A%2F%2Ffonts.googleapis.com%2Fcss%3Ffamily%3DArchitects%2BDaughter;" parent="1" source="6O0iVEAwSI0Z_arGeJ4l-193" target="6O0iVEAwSI0Z_arGeJ4l-190" edge="1">
          <mxGeometry relative="1" as="geometry" />
        </mxCell>
        <mxCell id="6O0iVEAwSI0Z_arGeJ4l-192" style="edgeStyle=orthogonalEdgeStyle;rounded=0;hachureGap=4;orthogonalLoop=1;jettySize=auto;html=1;exitX=0.25;exitY=1;exitDx=0;exitDy=0;entryX=0;entryY=0.75;entryDx=0;entryDy=0;fontFamily=Architects Daughter;fontSource=https%3A%2F%2Ffonts.googleapis.com%2Fcss%3Ffamily%3DArchitects%2BDaughter;" parent="1" source="6O0iVEAwSI0Z_arGeJ4l-193" target="6O0iVEAwSI0Z_arGeJ4l-196" edge="1">
          <mxGeometry relative="1" as="geometry" />
        </mxCell>
        <mxCell id="6O0iVEAwSI0Z_arGeJ4l-193" value="Real-Time Processing Service" style="rounded=0;whiteSpace=wrap;html=1;hachureGap=4;fontFamily=Architects Daughter;fontSource=https%3A%2F%2Ffonts.googleapis.com%2Fcss%3Ffamily%3DArchitects%2BDaughter;" parent="1" vertex="1">
          <mxGeometry x="1735" y="1557" width="140" height="60" as="geometry" />
        </mxCell>
        <mxCell id="6O0iVEAwSI0Z_arGeJ4l-194" style="edgeStyle=orthogonalEdgeStyle;rounded=0;hachureGap=4;orthogonalLoop=1;jettySize=auto;html=1;entryX=0.75;entryY=1;entryDx=0;entryDy=0;fontFamily=Architects Daughter;fontSource=https%3A%2F%2Ffonts.googleapis.com%2Fcss%3Ffamily%3DArchitects%2BDaughter;exitX=0;exitY=0.25;exitDx=0;exitDy=0;" parent="1" source="6O0iVEAwSI0Z_arGeJ4l-196" target="6O0iVEAwSI0Z_arGeJ4l-193" edge="1">
          <mxGeometry relative="1" as="geometry">
            <mxPoint x="2050" y="1694" as="sourcePoint" />
          </mxGeometry>
        </mxCell>
        <mxCell id="6O0iVEAwSI0Z_arGeJ4l-195" style="edgeStyle=orthogonalEdgeStyle;rounded=0;hachureGap=4;orthogonalLoop=1;jettySize=auto;html=1;exitX=1;exitY=0.25;exitDx=0;exitDy=0;entryX=0;entryY=0.5;entryDx=0;entryDy=0;fontFamily=Architects Daughter;fontSource=https%3A%2F%2Ffonts.googleapis.com%2Fcss%3Ffamily%3DArchitects%2BDaughter;" parent="1" source="6O0iVEAwSI0Z_arGeJ4l-196" target="6O0iVEAwSI0Z_arGeJ4l-198" edge="1">
          <mxGeometry relative="1" as="geometry" />
        </mxCell>
        <mxCell id="6O0iVEAwSI0Z_arGeJ4l-196" value="Data Ingestion Service" style="rounded=0;whiteSpace=wrap;html=1;hachureGap=4;fontFamily=Architects Daughter;fontSource=https%3A%2F%2Ffonts.googleapis.com%2Fcss%3Ffamily%3DArchitects%2BDaughter;" parent="1" vertex="1">
          <mxGeometry x="1935" y="1701" width="140" height="60" as="geometry" />
        </mxCell>
        <mxCell id="6O0iVEAwSI0Z_arGeJ4l-197" style="edgeStyle=orthogonalEdgeStyle;rounded=0;hachureGap=4;orthogonalLoop=1;jettySize=auto;html=1;exitX=0;exitY=1;exitDx=0;exitDy=0;entryX=1;entryY=0.75;entryDx=0;entryDy=0;fontFamily=Architects Daughter;fontSource=https%3A%2F%2Ffonts.googleapis.com%2Fcss%3Ffamily%3DArchitects%2BDaughter;" parent="1" source="6O0iVEAwSI0Z_arGeJ4l-198" target="6O0iVEAwSI0Z_arGeJ4l-196" edge="1">
          <mxGeometry relative="1" as="geometry" />
        </mxCell>
        <mxCell id="6O0iVEAwSI0Z_arGeJ4l-198" value="External Services" style="ellipse;whiteSpace=wrap;html=1;aspect=fixed;hachureGap=4;fontFamily=Architects Daughter;fontSource=https%3A%2F%2Ffonts.googleapis.com%2Fcss%3Ffamily%3DArchitects%2BDaughter;" parent="1" vertex="1">
          <mxGeometry x="2193" y="1677" width="80" height="80" as="geometry" />
        </mxCell>
        <mxCell id="6O0iVEAwSI0Z_arGeJ4l-199" value="" style="shape=cylinder3;whiteSpace=wrap;html=1;boundedLbl=1;backgroundOutline=1;size=15;hachureGap=4;fontFamily=Architects Daughter;fontSource=https%3A%2F%2Ffonts.googleapis.com%2Fcss%3Ffamily%3DArchitects%2BDaughter;" parent="1" vertex="1">
          <mxGeometry x="2000" y="1341" width="30" height="48" as="geometry" />
        </mxCell>
        <mxCell id="6O0iVEAwSI0Z_arGeJ4l-200" value="" style="rounded=0;whiteSpace=wrap;html=1;hachureGap=4;fontFamily=Architects Daughter;fontSource=https%3A%2F%2Ffonts.googleapis.com%2Fcss%3Ffamily%3DArchitects%2BDaughter;fillColor=#00CC66;strokeColor=#00CC66;rotation=90;" parent="1" vertex="1">
          <mxGeometry x="2304" y="1286" width="30" height="10" as="geometry" />
        </mxCell>
        <mxCell id="6O0iVEAwSI0Z_arGeJ4l-201" value="" style="ellipse;whiteSpace=wrap;html=1;aspect=fixed;hachureGap=4;fontFamily=Architects Daughter;fontSource=https%3A%2F%2Ffonts.googleapis.com%2Fcss%3Ffamily%3DArchitects%2BDaughter;strokeColor=#00CC66;fillColor=#00CC66;" parent="1" vertex="1">
          <mxGeometry x="2311" y="1247" width="16" height="16" as="geometry" />
        </mxCell>
        <mxCell id="6O0iVEAwSI0Z_arGeJ4l-202" value="&lt;font style=&quot;color: rgb(0, 204, 102);&quot;&gt;1. Analyze for issuer&lt;/font&gt;" style="text;html=1;align=center;verticalAlign=middle;whiteSpace=wrap;rounded=0;fontFamily=Architects Daughter;fontSource=https%3A%2F%2Ffonts.googleapis.com%2Fcss%3Ffamily%3DArchitects%2BDaughter;" parent="1" vertex="1">
          <mxGeometry x="2255" y="1217" width="80" height="30" as="geometry" />
        </mxCell>
        <mxCell id="6O0iVEAwSI0Z_arGeJ4l-203" value="" style="endArrow=none;html=1;rounded=0;hachureGap=4;fontFamily=Architects Daughter;fontSource=https%3A%2F%2Ffonts.googleapis.com%2Fcss%3Ffamily%3DArchitects%2BDaughter;strokeColor=#00CC66;entryX=0.5;entryY=1;entryDx=0;entryDy=0;exitX=0;exitY=0.5;exitDx=0;exitDy=0;" parent="1" source="6O0iVEAwSI0Z_arGeJ4l-201" target="6O0iVEAwSI0Z_arGeJ4l-200" edge="1">
          <mxGeometry width="50" height="50" relative="1" as="geometry">
            <mxPoint x="2314" y="1262" as="sourcePoint" />
            <mxPoint x="2314" y="1292" as="targetPoint" />
            <Array as="points">
              <mxPoint x="1995" y="1255" />
              <mxPoint x="1995" y="1569" />
              <mxPoint x="2255" y="1569" />
              <mxPoint x="2255" y="1290" />
            </Array>
          </mxGeometry>
        </mxCell>
        <mxCell id="6O0iVEAwSI0Z_arGeJ4l-204" value="&lt;font style=&quot;color: rgb(0, 204, 102);&quot;&gt;2. Find issuer data with id&lt;/font&gt;" style="text;html=1;align=center;verticalAlign=middle;whiteSpace=wrap;rounded=0;fontFamily=Architects Daughter;fontSource=https%3A%2F%2Ffonts.googleapis.com%2Fcss%3Ffamily%3DArchitects%2BDaughter;" parent="1" vertex="1">
          <mxGeometry x="1895" y="1359" width="80" height="30" as="geometry" />
        </mxCell>
        <mxCell id="6O0iVEAwSI0Z_arGeJ4l-205" value="&lt;font style=&quot;color: rgb(0, 204, 102);&quot;&gt;3. Analyze data&lt;/font&gt;" style="text;html=1;align=center;verticalAlign=middle;whiteSpace=wrap;rounded=0;fontFamily=Architects Daughter;fontSource=https%3A%2F%2Ffonts.googleapis.com%2Fcss%3Ffamily%3DArchitects%2BDaughter;" parent="1" vertex="1">
          <mxGeometry x="1895" y="1515" width="80" height="30" as="geometry" />
        </mxCell>
        <mxCell id="6O0iVEAwSI0Z_arGeJ4l-206" value="&lt;font style=&quot;color: rgb(0, 204, 102);&quot;&gt;4. Return prediction&lt;/font&gt;" style="text;html=1;align=center;verticalAlign=middle;whiteSpace=wrap;rounded=0;fontFamily=Architects Daughter;fontSource=https%3A%2F%2Ffonts.googleapis.com%2Fcss%3Ffamily%3DArchitects%2BDaughter;" parent="1" vertex="1">
          <mxGeometry x="2095" y="1527" width="80" height="30" as="geometry" />
        </mxCell>
        <mxCell id="6O0iVEAwSI0Z_arGeJ4l-207" value="&lt;font style=&quot;color: rgb(0, 204, 102);&quot;&gt;5. Visualize prediction&lt;/font&gt;" style="text;html=1;align=center;verticalAlign=middle;whiteSpace=wrap;rounded=0;fontFamily=Architects Daughter;fontSource=https%3A%2F%2Ffonts.googleapis.com%2Fcss%3Ffamily%3DArchitects%2BDaughter;" parent="1" vertex="1">
          <mxGeometry x="2273" y="1359" width="80" height="30" as="geometry" />
        </mxCell>
        <mxCell id="6O0iVEAwSI0Z_arGeJ4l-208" value="Predict action" style="text;html=1;align=center;verticalAlign=middle;resizable=0;points=[];autosize=1;strokeColor=none;fillColor=none;fontFamily=Architects Daughter;fontSource=https%3A%2F%2Ffonts.googleapis.com%2Fcss%3Ffamily%3DArchitects%2BDaughter;" parent="1" vertex="1">
          <mxGeometry x="1694" y="1169" width="100" height="30" as="geometry" />
        </mxCell>
        <mxCell id="6O0iVEAwSI0Z_arGeJ4l-212" value="" style="rounded=0;whiteSpace=wrap;html=1;hachureGap=4;fontFamily=Architects Daughter;fontSource=https%3A%2F%2Ffonts.googleapis.com%2Fcss%3Ffamily%3DArchitects%2BDaughter;fillColor=none;" parent="1" vertex="1">
          <mxGeometry x="867" y="1199" width="700" height="580" as="geometry" />
        </mxCell>
        <mxCell id="6O0iVEAwSI0Z_arGeJ4l-213" value="" style="rounded=0;whiteSpace=wrap;html=1;hachureGap=4;fontFamily=Architects Daughter;fontSource=https%3A%2F%2Ffonts.googleapis.com%2Fcss%3Ffamily%3DArchitects%2BDaughter;fillColor=none;" parent="1" vertex="1">
          <mxGeometry x="1694" y="1199" width="700" height="580" as="geometry" />
        </mxCell>
      </root>
    </mxGraphModel>
  </diagram>
</mxfile>
